<svg width="328" height="101" viewBox="0 0 328 101" fill="none" xmlns="http://www.w3.org/2000/svg">
<g opacity="0.75">
<path d="M77.9111 62.108C78.6258 59.2796 79.0932 56.3943 79.308 53.4849C79.9505 44.0808 76.6155 34.839 70.1158 28.0123C70.4797 27.8431 70.6524 27.4226 70.5125 27.0465C69.9089 24.8734 67.5806 22.6659 62.2515 20.7171C61.4065 20.4067 60.5959 20.1307 59.8198 19.8893C63.2982 16.805 66.16 13.0889 68.2532 8.93796C68.4074 8.61358 68.3497 8.22815 68.1074 7.9631C67.865 7.69804 67.4863 7.60616 67.1495 7.73072C62.5102 9.55882 50.7656 13.6634 42.6426 11.9733C42.9174 9.39738 43.5682 6.87564 44.5742 4.48844C44.6087 4.4022 44.6604 4.29873 44.6949 4.2125C44.7782 3.97426 44.8191 3.72326 44.8156 3.47091C44.8156 1.57383 42.5046 0.0216694 39.6418 0.0216694C37.6177 -0.162495 35.6693 0.838594 34.6404 2.59135C34.6098 2.65159 34.5867 2.71528 34.5714 2.78106C33.1968 5.79746 32.4347 9.05677 32.3294 12.3699C24.8273 12.301 16.1352 9.24839 12.3065 7.73072C11.9708 7.60702 11.5936 7.70031 11.3543 7.96624C11.115 8.23218 11.0618 8.61709 11.22 8.93796C13.3024 13.1004 16.1723 16.8195 19.6707 19.8893C18.8946 20.1307 18.084 20.4067 17.2217 20.7171C11.8926 22.6659 9.5644 24.8734 8.96078 27.0465C8.82602 27.3902 8.966 27.7807 9.28846 27.9605C2.77434 34.8002 -0.567268 44.0616 0.0789857 53.4849C1.70013 74.577 14.0139 86.4941 35.5717 87.8393L77.9111 62.108Z" fill="#BF616A"/>
<path d="M99.9173 69.3514C98.3823 89.2708 86.1375 100.015 64.7005 100.05H64.597C51.2312 100.032 41.4354 95.8416 35.5717 87.8393C31.8188 82.3773 29.6737 75.9719 29.3803 69.3514C29.2744 68.0259 29.2628 66.6946 29.3458 65.3675C29.4509 63.539 30.9635 62.1096 32.795 62.108H96.5025C98.3397 62.1118 99.8538 63.5502 99.9517 65.3848C100.026 66.7063 100.015 68.0313 99.9173 69.3514V69.3514Z" fill="#BF616A"/>
<path d="M83.047 69.0065C85.7707 69.0108 88.3017 70.4119 89.7511 72.7179C91.2006 75.0238 91.3658 77.9121 90.1887 80.3683C86.0616 88.9224 77.6352 93.1305 64.7005 93.1511H64.597C51.6762 93.1253 43.2445 88.9241 39.114 80.3717C37.9355 77.9155 38.0997 75.0264 39.5489 72.7195C40.9981 70.4127 43.5297 69.0108 46.254 69.0065C48.948 69.0669 51.4429 70.4389 52.9369 72.6816C55.0168 75.6049 59.4749 77.6296 64.6488 77.6296C69.8226 77.6296 74.2808 75.6049 76.352 72.6816C77.846 70.4389 80.3409 69.0669 83.0349 69.0065H83.047Z" fill="#D08770"/>
<path d="M23.7753 80.2751C23.5654 80.2753 23.3572 80.2367 23.1613 80.1613C14.1157 76.7121 8.40029 69.786 6.16863 59.5676C6.02041 58.6628 6.60613 57.8001 7.50184 57.6041C8.39755 57.4081 9.29006 57.9472 9.53336 58.8312C11.5287 67.9717 16.3853 73.8888 24.3841 76.9397C25.1629 77.2351 25.6193 78.045 25.4686 78.8643C25.3179 79.6835 24.6031 80.278 23.7701 80.2768L23.7753 80.2751Z" fill="#A3BE8C"/>
<path d="M64.1831 43.5683C64.2191 43.9439 64.0068 44.2993 63.659 44.4456C63.3111 44.5918 62.9086 44.4949 62.6654 44.2064C58.6816 39.3603 54.7322 38.5497 46.1608 34.2726C44.452 33.4479 42.8577 32.4044 41.4181 31.1683C40.2942 30.1915 39.6466 28.777 39.6418 27.2879C39.6373 24.7835 41.3719 22.6117 43.8153 22.0623H43.8326C44.206 21.9778 44.588 21.9372 44.9708 21.9416H45.1261C48.2821 22.0278 52.4557 23.5455 56.9914 28.8918C57.5088 29.4609 57.9917 30.0818 58.4919 30.7372C61.4973 34.4313 63.4621 38.8609 64.1831 43.5683V43.5683Z" fill="#A3BE8C"/>
<path d="M32.8468 18.9235C31.0359 17.8025 27.3107 17.4058 19.6707 19.8893C16.1723 16.8195 13.3024 13.1004 11.22 8.93796C11.0618 8.61709 11.115 8.23218 11.3543 7.96625C11.5936 7.70031 11.9708 7.60702 12.3065 7.73072C16.1352 9.24839 24.8273 12.301 32.3294 12.37C32.2436 14.5672 32.4173 16.7669 32.8468 18.9235Z" fill="#A3BE8C"/>
<path d="M70.1158 28.0123C69.9308 28.0901 69.7275 28.114 69.5294 28.0812C65.3361 27.5679 61.0838 27.8428 56.9914 28.8918C52.4557 23.5455 48.2821 22.0278 45.1261 21.9416H44.9708C44.9536 20.286 46.0056 15.4053 59.8026 19.8893H59.8198C60.5959 20.1308 61.4065 20.4067 62.2515 20.7171C67.5806 22.6659 69.9089 24.8735 70.5125 27.0465C70.6524 27.4226 70.4797 27.8431 70.1158 28.0123V28.0123Z" fill="#A3BE8C"/>
<path d="M68.2532 8.93798C66.16 13.0889 63.2982 16.8051 59.8198 19.8893H59.8026C46.0056 15.4053 44.9536 20.286 44.9708 21.9416C44.588 21.9373 44.206 21.9778 43.8326 22.0623H43.8154C42.629 18.8401 42.227 15.3817 42.6426 11.9733C50.7656 13.6634 62.5102 9.55884 67.1495 7.73074C67.4863 7.60619 67.865 7.69806 68.1074 7.96312C68.3497 8.22818 68.4074 8.61361 68.2532 8.93798Z" fill="#A3BE8C"/>
<path d="M44.8156 3.47091C44.8191 3.72326 44.7782 3.97426 44.6949 4.2125C44.6604 4.29873 44.6087 4.4022 44.5742 4.48844C43.5097 6.15264 41.61 7.08917 39.6418 6.92015C36.7789 6.92015 34.4679 5.36799 34.4679 3.47091C34.4672 3.23704 34.5021 3.00443 34.5714 2.78106C34.5867 2.71528 34.6098 2.65159 34.6404 2.59135C35.6693 0.838594 37.6177 -0.162495 39.6418 0.0216694C42.5046 0.0216694 44.8156 1.57383 44.8156 3.47091V3.47091Z" fill="#A3BE8C"/>
<path d="M39.6418 27.2879C39.6369 28.777 38.9894 30.1915 37.8654 31.1683C36.4222 32.4079 34.8218 33.4517 33.1055 34.2726C24.5513 38.5497 20.602 39.3602 16.6009 44.2064C16.3577 44.4949 15.9552 44.5918 15.6073 44.4455C15.2595 44.2993 15.0472 43.9439 15.0832 43.5683C15.8199 38.8623 17.7895 34.4352 20.7917 30.7371C21.3091 30.0645 21.8092 29.4264 22.3266 28.8401C26.8623 23.5455 31.0014 22.0278 34.1575 21.9416C34.2727 21.9383 34.3881 21.944 34.5024 21.9588C37.3784 22.0449 39.6599 24.4107 39.6418 27.2879V27.2879Z" fill="#A3BE8C"/>
<path d="M34.5024 21.9588C34.3881 21.944 34.2727 21.9383 34.1575 21.9416C31.0014 22.0278 26.8623 23.5455 22.3266 28.84C18.2807 27.8283 14.083 27.571 9.94382 28.0812C9.71799 28.1169 9.48674 28.0743 9.28846 27.9605C8.966 27.7806 8.82603 27.3902 8.96079 27.0464C9.5644 24.8734 11.8926 22.6659 17.2217 20.7171C18.084 20.4067 18.8946 20.1307 19.6707 19.8893C27.3107 17.4058 31.0359 17.8025 32.8468 18.9235C33.9082 19.5602 34.5418 20.7217 34.5024 21.9588V21.9588Z" fill="#A3BE8C"/>
<path d="M43.8153 22.0623C41.3719 22.6117 39.6373 24.7835 39.6418 27.2879C39.6599 24.4107 37.3784 22.045 34.5024 21.9588C34.5417 20.7217 33.9082 19.5602 32.8468 18.9235C32.4173 16.7669 32.2436 14.5672 32.3294 12.37C32.4347 9.05677 33.1968 5.79747 34.5714 2.78107C34.5021 3.00443 34.4672 3.23705 34.4679 3.47092C34.4679 5.368 36.7789 6.92016 39.6418 6.92016C41.61 7.08918 43.5097 6.15264 44.5742 4.48844C43.5682 6.87564 42.9174 9.39738 42.6426 11.9733C42.227 15.3817 42.629 18.8401 43.8153 22.0623V22.0623Z" fill="#A3BE8C"/>
<path d="M6.874 55.2095C7.82648 55.2095 8.59862 54.4374 8.59862 53.4849C8.59862 52.5324 7.82648 51.7603 6.874 51.7603C5.92152 51.7603 5.14938 52.5324 5.14938 53.4849C5.14938 54.4374 5.92152 55.2095 6.874 55.2095Z" fill="#A3BE8C"/>
<path d="M44.8156 81.0788C44.1182 81.0786 43.4895 80.6585 43.2226 80.0141C42.9558 79.3698 43.1033 78.6281 43.5963 78.1349L47.0456 74.6856C47.7223 74.032 48.7979 74.0414 49.4632 74.7066C50.1284 75.3719 50.1378 76.4475 49.4842 77.1242L46.0349 80.5735C45.7116 80.8969 45.273 81.0787 44.8156 81.0788Z" fill="#EBCB8B"/>
<path d="M51.7141 86.2526C51.1167 86.2523 50.5619 85.9428 50.2479 85.4345C49.9338 84.9262 49.9053 84.2916 50.1723 83.7571L51.897 80.3079C52.3227 79.4554 53.3589 79.1095 54.2114 79.5352C55.0639 79.961 55.4098 80.9972 54.984 81.8497L53.2594 85.2989C52.9669 85.8842 52.3684 86.2536 51.7141 86.2526V86.2526Z" fill="#EBCB8B"/>
<path d="M84.4819 81.0788C84.0246 81.0787 83.586 80.8969 83.2626 80.5735L79.8134 77.1242C79.1598 76.4475 79.1691 75.3719 79.8344 74.7066C80.4996 74.0414 81.5753 74.032 82.252 74.6856L85.7012 78.1348C86.1943 78.6281 86.3418 79.3697 86.0749 80.0141C85.808 80.6584 85.1794 81.0786 84.4819 81.0788Z" fill="#EBCB8B"/>
<path d="M77.5834 86.2526C76.9267 86.2562 76.3249 85.8864 76.0313 85.2989L74.3067 81.8497C73.8809 80.9972 74.2268 79.961 75.0793 79.5352C75.9318 79.1095 76.968 79.4554 77.3937 80.3079L79.1184 83.7571C79.3849 84.2905 79.357 84.9237 79.0446 85.4316C78.7323 85.9394 78.1797 86.2499 77.5834 86.2526V86.2526Z" fill="#EBCB8B"/>
<path d="M60.3372 87.9772C59.3847 87.9772 58.6126 87.2051 58.6126 86.2526V82.8034C58.6126 81.8509 59.3847 81.0788 60.3372 81.0788C61.2897 81.0788 62.0618 81.8509 62.0618 82.8034V86.2526C62.0618 87.2051 61.2897 87.9772 60.3372 87.9772Z" fill="#EBCB8B"/>
<path d="M68.9603 87.9772C68.0079 87.9772 67.2357 87.2051 67.2357 86.2526V82.8034C67.2357 81.8509 68.0079 81.0788 68.9603 81.0788C69.9128 81.0788 70.685 81.8509 70.685 82.8034V86.2526C70.685 87.2051 69.9128 87.9772 68.9603 87.9772Z" fill="#EBCB8B"/>
<path d="M29.3458 65.3675C29.2628 66.6946 29.2744 68.0259 29.3803 69.3514C29.6737 75.9719 31.8188 82.3773 35.5717 87.8393C34.054 87.7358 32.5708 87.5979 31.1566 87.3909C28.0714 81.9516 26.2887 75.8714 25.9483 69.6273C25.8287 68.1298 25.8114 66.6259 25.8966 65.1261C26.1304 61.4882 29.1497 58.6576 32.795 58.6588H78.6527C78.4457 59.8487 78.2043 60.987 77.9111 62.108H32.795C30.9635 62.1095 29.4508 63.539 29.3458 65.3675V65.3675Z" fill="#2E3440"/>
</g>
<path d="M92.824 33.62C91.408 33.62 90.124 33.428 88.972 33.044C87.844 32.66 86.788 32.084 85.804 31.316L87.1 29.624C87.652 30.032 88.288 30.344 89.008 30.56C89.752 30.752 90.52 30.848 91.312 30.848C92.872 30.848 94.228 30.536 95.38 29.912C96.532 29.264 97.408 28.388 98.008 27.284C98.632 26.18 98.944 24.92 98.944 23.504C98.944 21.848 98.512 20.492 97.648 19.436C96.808 18.356 95.452 17.816 93.58 17.816C92.668 17.816 91.732 18.032 90.772 18.464C89.836 18.872 88.804 19.496 87.676 20.336V18.824C88.588 17.936 89.392 17.228 90.088 16.7C90.784 16.172 91.612 15.752 92.572 15.44C93.532 15.104 94.648 14.936 95.92 14.936C97.504 14.936 98.872 15.308 100.024 16.052C101.176 16.796 102.04 17.78 102.616 19.004C103.216 20.228 103.516 21.56 103.516 23C103.516 24.896 103.12 26.648 102.328 28.256C101.536 29.864 100.336 31.16 98.728 32.144C97.144 33.128 95.176 33.62 92.824 33.62ZM85.444 41.936C84.556 41.936 83.908 41.708 83.5 41.252C83.092 40.796 82.888 40.052 82.888 39.02C82.888 37.628 83.08 35.516 83.464 32.684C83.848 29.852 84.58 25.148 85.66 18.572L84.544 16.376C86.152 15.368 87.58 14.864 88.828 14.864C89.884 14.864 90.412 15.5 90.412 16.772C90.412 16.988 90.304 17.768 90.088 19.112C89.872 20.432 89.632 21.908 89.368 23.54C88.672 27.932 88.156 31.196 87.82 33.332C87.508 35.468 87.352 36.968 87.352 37.832C87.352 38.528 87.424 39.14 87.568 39.668C87.712 40.196 87.928 40.64 88.216 41C87.28 41.624 86.356 41.936 85.444 41.936ZM115.517 41.9C113.789 41.9 112.265 41.516 110.945 40.748C109.649 39.956 108.641 38.852 107.921 37.436C107.225 35.996 106.877 34.328 106.877 32.432C106.877 29.888 107.405 27.632 108.461 25.664C109.541 23.696 111.041 22.16 112.961 21.056C114.881 19.952 117.053 19.4 119.477 19.4C120.485 19.4 121.409 19.496 122.249 19.688C122.513 20.072 122.669 20.636 122.717 21.38C120.317 21.38 118.265 21.86 116.561 22.82C114.857 23.78 113.561 25.124 112.673 26.852C111.785 28.556 111.341 30.5 111.341 32.684C111.341 34.82 111.737 36.488 112.529 37.688C113.321 38.888 114.449 39.488 115.913 39.488C117.329 39.488 118.601 39.092 119.729 38.3C120.881 37.508 121.817 36.38 122.537 34.916C123.281 33.452 123.749 31.748 123.941 29.804C122.957 29.18 122.237 28.496 121.781 27.752C121.349 27.008 121.133 26.132 121.133 25.124C121.133 24.524 121.253 23.984 121.493 23.504C121.757 23 122.105 22.616 122.537 22.352C122.969 22.064 123.461 21.92 124.013 21.92C125.117 21.92 125.981 22.412 126.605 23.396C127.229 24.38 127.541 25.748 127.541 27.5C127.541 30.14 127.001 32.564 125.921 34.772C124.865 36.956 123.413 38.696 121.565 39.992C119.741 41.264 117.725 41.9 115.517 41.9ZM136.239 41.9C135.399 41.9 134.775 41.684 134.367 41.252C133.983 40.82 133.791 40.184 133.791 39.344C133.791 38.144 134.127 35.828 134.799 32.396C135.495 28.964 136.203 25.832 136.923 23L135.303 21.2C135.879 20.696 136.551 20.288 137.319 19.976C138.111 19.664 138.819 19.508 139.443 19.508C140.163 19.508 140.667 19.652 140.955 19.94C141.243 20.228 141.387 20.744 141.387 21.488C141.387 22.112 141.279 22.82 141.063 23.612C140.871 24.404 140.607 25.136 140.271 25.808L140.631 25.988C141.855 23.66 143.187 21.98 144.627 20.948C146.091 19.916 147.711 19.4 149.487 19.4C150.975 19.4 152.067 19.808 152.763 20.624C153.459 21.416 153.807 22.52 153.807 23.936C153.807 24.536 153.723 25.16 153.555 25.808L153.915 25.988C155.187 23.66 156.567 21.98 158.055 20.948C159.543 19.916 161.187 19.4 162.987 19.4C164.547 19.4 165.711 19.796 166.479 20.588C167.247 21.356 167.631 22.556 167.631 24.188C167.631 25.148 167.523 26.144 167.307 27.176C167.115 28.208 166.827 29.504 166.443 31.064C165.987 32.888 165.651 34.388 165.435 35.564C165.219 36.716 165.111 37.868 165.111 39.02C165.111 39.908 165.255 40.532 165.543 40.892C164.847 41.564 164.103 41.9 163.311 41.9C162.471 41.9 161.847 41.672 161.439 41.216C161.031 40.784 160.827 40.136 160.827 39.272C160.827 38.36 160.923 37.328 161.115 36.176C161.331 35 161.643 33.536 162.051 31.784C162.435 30.08 162.711 28.76 162.879 27.824C163.047 26.888 163.131 26.072 163.131 25.376C163.131 24.416 162.951 23.696 162.591 23.216C162.255 22.712 161.691 22.46 160.899 22.46C159.531 22.46 158.115 23.18 156.651 24.62C155.211 26.06 153.999 28.052 153.015 30.596C152.055 33.116 151.575 35.924 151.575 39.02C151.575 39.932 151.731 40.556 152.043 40.892C151.347 41.564 150.591 41.9 149.775 41.9C148.935 41.9 148.311 41.672 147.903 41.216C147.519 40.784 147.327 40.136 147.327 39.272C147.327 38.36 147.423 37.328 147.615 36.176C147.831 35 148.143 33.536 148.551 31.784C148.935 30.08 149.211 28.76 149.379 27.824C149.547 26.888 149.631 26.072 149.631 25.376C149.631 23.432 148.887 22.46 147.399 22.46C146.031 22.46 144.615 23.18 143.151 24.62C141.711 26.06 140.499 28.052 139.515 30.596C138.555 33.116 138.075 35.924 138.075 39.02C138.075 39.908 138.219 40.532 138.507 40.892C137.811 41.564 137.055 41.9 136.239 41.9ZM181.822 41.9C180.094 41.9 178.57 41.516 177.25 40.748C175.954 39.956 174.946 38.852 174.226 37.436C173.53 35.996 173.182 34.328 173.182 32.432C173.182 29.888 173.71 27.632 174.766 25.664C175.846 23.696 177.346 22.16 179.266 21.056C181.186 19.952 183.358 19.4 185.782 19.4C186.79 19.4 187.714 19.496 188.554 19.688C188.818 20.072 188.974 20.636 189.022 21.38C186.622 21.38 184.57 21.86 182.866 22.82C181.162 23.78 179.866 25.124 178.978 26.852C178.09 28.556 177.646 30.5 177.646 32.684C177.646 34.82 178.042 36.488 178.834 37.688C179.626 38.888 180.754 39.488 182.218 39.488C183.634 39.488 184.906 39.092 186.034 38.3C187.186 37.508 188.122 36.38 188.842 34.916C189.586 33.452 190.054 31.748 190.246 29.804C189.262 29.18 188.542 28.496 188.086 27.752C187.654 27.008 187.438 26.132 187.438 25.124C187.438 24.524 187.558 23.984 187.798 23.504C188.062 23 188.41 22.616 188.842 22.352C189.274 22.064 189.766 21.92 190.318 21.92C191.422 21.92 192.286 22.412 192.91 23.396C193.534 24.38 193.846 25.748 193.846 27.5C193.846 30.14 193.306 32.564 192.226 34.772C191.17 36.956 189.718 38.696 187.87 39.992C186.046 41.264 184.03 41.9 181.822 41.9ZM205.604 41.9C204.308 41.9 203.156 41.552 202.148 40.856C201.164 40.16 200.396 39.176 199.844 37.904C199.316 36.608 199.052 35.12 199.052 33.44C199.052 31.016 199.664 28.808 200.888 26.816C202.112 24.8 203.78 23.216 205.892 22.064C208.004 20.888 210.332 20.3 212.876 20.3C214.172 20.3 215.3 20.396 216.26 20.588C216.548 21.044 216.692 21.608 216.692 22.28C214.028 22.28 211.7 22.748 209.708 23.684C207.716 24.62 206.18 25.928 205.1 27.608C204.02 29.264 203.48 31.172 203.48 33.332C203.48 34.964 203.816 36.236 204.488 37.148C205.16 38.06 206.108 38.516 207.332 38.516C208.652 38.516 209.948 37.928 211.22 36.752C212.492 35.576 213.476 33.992 214.172 32L213.848 36.896L213.128 36.608C212.264 38.288 211.172 39.596 209.852 40.532C208.556 41.444 207.14 41.9 205.604 41.9ZM215.612 41.9C214.868 41.9 214.304 41.66 213.92 41.18C213.536 40.724 213.344 40.016 213.344 39.056C213.344 38.144 213.596 36.02 214.1 32.684C214.604 29.324 215.216 25.46 215.936 21.092C216.104 20.252 216.248 19.448 216.368 18.68C216.512 17.888 216.644 17.144 216.764 16.448L215.18 14.648C215.756 14.168 216.428 13.796 217.196 13.532C217.964 13.244 218.672 13.1 219.32 13.1C219.992 13.1 220.472 13.256 220.76 13.568C221.048 13.856 221.192 14.36 221.192 15.08C221.192 15.56 221.084 16.304 220.868 17.312C220.676 18.32 220.448 19.424 220.184 20.624C219.392 24.128 218.756 27.296 218.276 30.128C217.796 32.936 217.556 35.792 217.556 38.696C217.556 39.128 217.616 39.548 217.736 39.956C217.88 40.364 218.072 40.676 218.312 40.892C217.928 41.204 217.508 41.444 217.052 41.612C216.62 41.804 216.14 41.9 215.612 41.9ZM234.802 41.9C233.074 41.9 231.55 41.516 230.23 40.748C228.934 39.956 227.926 38.852 227.206 37.436C226.51 35.996 226.162 34.328 226.162 32.432C226.162 29.888 226.69 27.632 227.746 25.664C228.826 23.696 230.326 22.16 232.246 21.056C234.166 19.952 236.338 19.4 238.762 19.4C239.77 19.4 240.694 19.496 241.534 19.688C241.798 20.072 241.954 20.636 242.002 21.38C239.602 21.38 237.55 21.86 235.846 22.82C234.142 23.78 232.846 25.124 231.958 26.852C231.07 28.556 230.626 30.5 230.626 32.684C230.626 34.82 231.022 36.488 231.814 37.688C232.606 38.888 233.734 39.488 235.198 39.488C236.614 39.488 237.886 39.092 239.014 38.3C240.166 37.508 241.102 36.38 241.822 34.916C242.566 33.452 243.034 31.748 243.226 29.804C242.242 29.18 241.522 28.496 241.066 27.752C240.634 27.008 240.418 26.132 240.418 25.124C240.418 24.524 240.538 23.984 240.778 23.504C241.042 23 241.39 22.616 241.822 22.352C242.254 22.064 242.746 21.92 243.298 21.92C244.402 21.92 245.266 22.412 245.89 23.396C246.514 24.38 246.826 25.748 246.826 27.5C246.826 30.14 246.286 32.564 245.206 34.772C244.15 36.956 242.698 38.696 240.85 39.992C239.026 41.264 237.01 41.9 234.802 41.9ZM255.488 41.9C254.672 41.9 254.06 41.648 253.652 41.144C253.244 40.664 253.04 39.92 253.04 38.912C253.04 37.928 253.364 35.768 254.012 32.432C254.684 29.072 255.404 25.928 256.172 23L254.588 21.2C255.236 20.672 255.86 20.264 256.46 19.976C257.084 19.664 257.648 19.508 258.152 19.508C258.824 19.508 259.316 19.7 259.628 20.084C259.94 20.444 260.096 20.912 260.096 21.488C260.096 22.232 259.964 23.048 259.7 23.936C259.46 24.8 259.1 25.82 258.62 26.996L258.98 27.176C259.724 25.4 260.48 23.936 261.248 22.784C262.04 21.632 262.832 20.78 263.624 20.228C264.44 19.652 265.256 19.364 266.072 19.364C266.864 19.364 267.452 19.544 267.836 19.904C268.244 20.24 268.448 20.768 268.448 21.488C268.448 22.28 268.136 22.916 267.512 23.396C266.888 23.876 266.072 24.116 265.064 24.116C263.792 24.116 262.556 24.836 261.356 26.276C260.156 27.716 259.184 29.588 258.44 31.892C257.696 34.196 257.324 36.572 257.324 39.02C257.324 39.908 257.468 40.532 257.756 40.892C257.036 41.564 256.28 41.9 255.488 41.9ZM277.904 41.9C276.176 41.9 274.652 41.516 273.332 40.748C272.036 39.956 271.028 38.852 270.308 37.436C269.612 35.996 269.264 34.328 269.264 32.432C269.264 29.888 269.792 27.632 270.848 25.664C271.928 23.696 273.428 22.16 275.348 21.056C277.268 19.952 279.44 19.4 281.864 19.4C282.872 19.4 283.796 19.496 284.636 19.688C284.9 20.072 285.056 20.636 285.104 21.38C282.704 21.38 280.652 21.86 278.948 22.82C277.244 23.78 275.948 25.124 275.06 26.852C274.172 28.556 273.728 30.5 273.728 32.684C273.728 34.82 274.124 36.488 274.916 37.688C275.708 38.888 276.836 39.488 278.3 39.488C279.716 39.488 280.988 39.092 282.116 38.3C283.268 37.508 284.204 36.38 284.924 34.916C285.668 33.452 286.136 31.748 286.328 29.804C285.344 29.18 284.624 28.496 284.168 27.752C283.736 27.008 283.52 26.132 283.52 25.124C283.52 24.524 283.64 23.984 283.88 23.504C284.144 23 284.492 22.616 284.924 22.352C285.356 22.064 285.848 21.92 286.4 21.92C287.504 21.92 288.368 22.412 288.992 23.396C289.616 24.38 289.928 25.748 289.928 27.5C289.928 30.14 289.388 32.564 288.308 34.772C287.252 36.956 285.8 38.696 283.952 39.992C282.128 41.264 280.112 41.9 277.904 41.9ZM296.538 23.468C297.354 23.036 298.026 22.388 298.554 21.524C299.106 20.66 299.382 19.868 299.382 19.148L297.546 16.736C297.546 16.208 297.702 15.704 298.014 15.224C298.326 14.744 298.734 14.36 299.238 14.072C299.766 13.784 300.318 13.64 300.894 13.64C301.758 13.64 302.442 13.94 302.946 14.54C303.45 15.116 303.702 15.812 303.702 16.628C303.702 17.876 303.426 19.028 302.874 20.084C302.322 21.116 301.542 22.016 300.534 22.784C299.526 23.552 298.338 24.164 296.97 24.62L296.538 23.468ZM314.596 41.9C312.22 41.9 310.348 41.576 308.98 40.928C307.612 40.28 306.928 39.38 306.928 38.228C306.928 37.748 307.072 37.292 307.36 36.86C307.648 36.428 308.056 36.068 308.584 35.78C309.184 36.98 309.988 37.904 310.996 38.552C312.004 39.176 313.12 39.488 314.344 39.488C316.072 39.488 317.464 39.164 318.52 38.516C319.576 37.868 320.104 36.932 320.104 35.708C320.104 34.964 319.708 34.364 318.916 33.908C318.148 33.452 316.96 32.948 315.352 32.396C313.864 31.892 312.64 31.412 311.68 30.956C310.72 30.5 309.904 29.888 309.232 29.12C308.56 28.328 308.224 27.356 308.224 26.204C308.224 24.884 308.68 23.708 309.592 22.676C310.504 21.644 311.764 20.84 313.372 20.264C315.004 19.688 316.876 19.4 318.988 19.4C320.908 19.4 322.48 19.688 323.704 20.264C324.952 20.84 325.576 21.572 325.576 22.46C325.576 23.324 325.288 23.996 324.712 24.476C324.136 24.932 323.38 25.16 322.444 25.16C321.532 25.16 320.752 24.872 320.104 24.296C319.456 23.72 318.964 22.88 318.628 21.776C316.66 21.992 315.112 22.46 313.984 23.18C312.88 23.876 312.328 24.728 312.328 25.736C312.328 26.24 312.52 26.672 312.904 27.032C313.312 27.392 313.816 27.704 314.416 27.968C315.016 28.208 315.868 28.52 316.972 28.904C318.508 29.432 319.744 29.924 320.68 30.38C321.64 30.836 322.456 31.46 323.128 32.252C323.824 33.02 324.172 33.992 324.172 35.168C324.172 36.44 323.788 37.592 323.02 38.624C322.252 39.632 321.136 40.424 319.672 41C318.232 41.6 316.54 41.9 314.596 41.9Z" fill="#BF616A"/>
<path d="M199.46 70.65C198.923 70.65 198.498 70.494 198.186 70.182C197.874 69.87 197.718 69.2893 197.718 68.44C197.718 67.5907 197.831 66.62 198.056 65.528C198.281 64.436 198.611 63.032 199.044 61.316C199.443 59.756 199.737 58.5167 199.928 57.598C200.119 56.662 200.214 55.856 200.214 55.18C200.214 54.556 200.127 53.854 199.954 53.074L199.902 52.866C200.197 52.554 200.587 52.3113 201.072 52.138C201.557 51.9473 202.034 51.852 202.502 51.852C203.005 51.852 203.369 51.9647 203.594 52.19C203.819 52.4153 203.932 52.788 203.932 53.308C203.932 53.724 203.845 54.2613 203.672 54.92C203.516 55.5787 203.256 56.506 202.892 57.702C202.233 59.886 201.713 61.7927 201.332 63.422C200.968 65.034 200.795 66.6633 200.812 68.31L201.644 69.714C201.332 70.026 200.977 70.26 200.578 70.416C200.197 70.572 199.824 70.65 199.46 70.65ZM198.134 58.612C197.701 58.612 197.389 58.534 197.198 58.378C197.007 58.2047 196.912 57.9447 196.912 57.598C196.912 57.1473 197.051 56.7227 197.328 56.324C197.813 56.48 198.602 56.558 199.694 56.558C200.353 56.558 201.219 56.4627 202.294 56.272C202.745 56.2027 203.213 56.142 203.698 56.09C204.183 56.0207 204.625 55.986 205.024 55.986C205.475 55.986 205.787 56.0727 205.96 56.246C206.133 56.4193 206.22 56.6793 206.22 57.026C206.22 57.4767 206.081 57.884 205.804 58.248C205.544 58.1787 205.189 58.1267 204.738 58.092C204.305 58.04 203.897 58.014 203.516 58.014C203.152 58.014 202.736 58.0487 202.268 58.118C201.8 58.17 201.349 58.2307 200.916 58.3C199.668 58.508 198.741 58.612 198.134 58.612ZM213.95 70.65C212.702 70.65 211.601 70.3727 210.648 69.818C209.712 69.246 208.984 68.4487 208.464 67.426C207.961 66.386 207.71 65.1813 207.71 63.812C207.71 61.9747 208.091 60.3453 208.854 58.924C209.634 57.5027 210.717 56.3933 212.104 55.596C213.49 54.7987 215.059 54.4 216.81 54.4C217.538 54.4 218.205 54.4693 218.812 54.608C219.002 54.8853 219.115 55.2927 219.15 55.83C217.416 55.83 215.934 56.1767 214.704 56.87C213.473 57.5633 212.537 58.534 211.896 59.782C211.254 61.0127 210.934 62.4167 210.934 63.994C210.934 65.5367 211.22 66.7413 211.792 67.608C212.364 68.4747 213.178 68.908 214.236 68.908C215.258 68.908 216.177 68.622 216.992 68.05C217.824 67.478 218.5 66.6633 219.02 65.606C219.557 64.5487 219.895 63.318 220.034 61.914C219.323 61.4633 218.803 60.9693 218.474 60.432C218.162 59.8947 218.006 59.262 218.006 58.534C218.006 58.1007 218.092 57.7107 218.266 57.364C218.456 57 218.708 56.7227 219.02 56.532C219.332 56.324 219.687 56.22 220.086 56.22C220.883 56.22 221.507 56.5753 221.958 57.286C222.408 57.9967 222.634 58.9847 222.634 60.25C222.634 62.1567 222.244 63.9073 221.464 65.502C220.701 67.0793 219.652 68.336 218.318 69.272C217 70.1907 215.544 70.65 213.95 70.65ZM239.555 70.65C238.619 70.65 237.787 70.3987 237.059 69.896C236.348 69.3933 235.794 68.6827 235.395 67.764C235.014 66.828 234.823 65.7533 234.823 64.54C234.823 62.7893 235.265 61.1947 236.149 59.756C237.033 58.3 238.238 57.156 239.763 56.324C241.288 55.4747 242.97 55.05 244.807 55.05C245.743 55.05 246.558 55.1193 247.251 55.258C247.459 55.5873 247.563 55.9947 247.563 56.48C245.639 56.48 243.958 56.818 242.519 57.494C241.08 58.17 239.971 59.1147 239.191 60.328C238.411 61.524 238.021 62.902 238.021 64.462C238.021 65.6407 238.264 66.5593 238.749 67.218C239.234 67.8767 239.919 68.206 240.803 68.206C241.756 68.206 242.692 67.7813 243.611 66.932C244.53 66.0827 245.24 64.9387 245.743 63.5L245.509 67.036L244.989 66.828C244.365 68.0413 243.576 68.986 242.623 69.662C241.687 70.3207 240.664 70.65 239.555 70.65ZM246.783 70.65C246.246 70.65 245.838 70.4767 245.561 70.13C245.284 69.8007 245.145 69.2893 245.145 68.596C245.145 67.9373 245.327 66.4033 245.691 63.994C246.055 61.5673 246.497 58.7767 247.017 55.622C247.138 55.0153 247.242 54.4347 247.329 53.88C247.433 53.308 247.528 52.7707 247.615 52.268L246.471 50.968C246.887 50.6213 247.372 50.3527 247.927 50.162C248.482 49.954 248.993 49.85 249.461 49.85C249.946 49.85 250.293 49.9627 250.501 50.188C250.709 50.396 250.813 50.76 250.813 51.28C250.813 51.6267 250.735 52.164 250.579 52.892C250.44 53.62 250.276 54.4173 250.085 55.284C249.513 57.8147 249.054 60.1027 248.707 62.148C248.36 64.176 248.187 66.2387 248.187 68.336C248.187 68.648 248.23 68.9513 248.317 69.246C248.421 69.5407 248.56 69.766 248.733 69.922C248.456 70.1473 248.152 70.3207 247.823 70.442C247.511 70.5807 247.164 70.65 246.783 70.65ZM260.643 70.65C259.395 70.65 258.294 70.3727 257.341 69.818C256.405 69.246 255.677 68.4487 255.157 67.426C254.654 66.386 254.403 65.1813 254.403 63.812C254.403 61.9747 254.784 60.3453 255.547 58.924C256.327 57.5027 257.41 56.3933 258.797 55.596C260.184 54.7987 261.752 54.4 263.503 54.4C264.231 54.4 264.898 54.4693 265.505 54.608C265.696 54.8853 265.808 55.2927 265.843 55.83C264.11 55.83 262.628 56.1767 261.397 56.87C260.166 57.5633 259.23 58.534 258.589 59.782C257.948 61.0127 257.627 62.4167 257.627 63.994C257.627 65.5367 257.913 66.7413 258.485 67.608C259.057 68.4747 259.872 68.908 260.929 68.908C261.952 68.908 262.87 68.622 263.685 68.05C264.517 67.478 265.193 66.6633 265.713 65.606C266.25 64.5487 266.588 63.318 266.727 61.914C266.016 61.4633 265.496 60.9693 265.167 60.432C264.855 59.8947 264.699 59.262 264.699 58.534C264.699 58.1007 264.786 57.7107 264.959 57.364C265.15 57 265.401 56.7227 265.713 56.532C266.025 56.324 266.38 56.22 266.779 56.22C267.576 56.22 268.2 56.5753 268.651 57.286C269.102 57.9967 269.327 58.9847 269.327 60.25C269.327 62.1567 268.937 63.9073 268.157 65.502C267.394 67.0793 266.346 68.336 265.011 69.272C263.694 70.1907 262.238 70.65 260.643 70.65ZM283.778 70.65C283.258 70.65 282.86 70.4767 282.582 70.13C282.305 69.8007 282.166 69.2893 282.166 68.596C282.166 67.92 282.357 66.308 282.738 63.76C283.12 61.1947 283.553 58.482 284.038 55.622C284.142 55.0153 284.246 54.4347 284.35 53.88C284.454 53.308 284.55 52.7707 284.636 52.268L283.492 50.968C283.891 50.6213 284.368 50.3527 284.922 50.162C285.494 49.954 286.014 49.85 286.482 49.85C286.968 49.85 287.314 49.9627 287.522 50.188C287.73 50.396 287.834 50.76 287.834 51.28C287.834 51.5053 287.765 51.982 287.626 52.71C287.488 53.438 287.323 54.2527 287.132 55.154C286.56 57.9447 286.092 60.4233 285.728 62.59C285.382 64.7393 285.208 66.6547 285.208 68.336C285.208 68.6653 285.252 68.9773 285.338 69.272C285.442 69.5493 285.572 69.766 285.728 69.922C285.468 70.1473 285.174 70.3207 284.844 70.442C284.515 70.5807 284.16 70.65 283.778 70.65ZM293.762 70.65C293.173 70.65 292.731 70.5027 292.436 70.208C292.142 69.9133 291.994 69.4453 291.994 68.804C291.994 68.0933 292.159 66.828 292.488 65.008C292.835 63.188 293.416 60.4493 294.23 56.792L293.086 55.492C293.502 55.1627 293.979 54.9027 294.516 54.712C295.071 54.504 295.574 54.4 296.024 54.4C296.544 54.4 296.908 54.5127 297.116 54.738C297.342 54.946 297.454 55.31 297.454 55.83C297.454 55.9167 297.402 56.1767 297.298 56.61C297.212 57.0433 297.099 57.5287 296.96 58.066C296.423 60.2673 295.972 62.2607 295.608 64.046C295.262 65.8313 295.088 67.3393 295.088 68.57C295.088 69.2287 295.244 69.688 295.556 69.948C294.984 70.416 294.386 70.65 293.762 70.65ZM296.076 52.19C295.522 52.19 295.08 52.06 294.75 51.8C294.421 51.5227 294.256 51.1587 294.256 50.708C294.256 50.3613 294.352 50.0407 294.542 49.746C294.75 49.4513 295.028 49.2173 295.374 49.044C295.721 48.8533 296.12 48.758 296.57 48.758C297.142 48.758 297.584 48.8967 297.896 49.174C298.226 49.434 298.39 49.7807 298.39 50.214C298.39 50.7687 298.174 51.2367 297.74 51.618C297.307 51.9993 296.752 52.19 296.076 52.19ZM306.338 70.65C304.622 70.65 303.27 70.416 302.282 69.948C301.294 69.48 300.8 68.83 300.8 67.998C300.8 67.6513 300.904 67.322 301.112 67.01C301.32 66.698 301.615 66.438 301.996 66.23C302.43 67.0967 303.01 67.764 303.738 68.232C304.466 68.6827 305.272 68.908 306.156 68.908C307.404 68.908 308.41 68.674 309.172 68.206C309.935 67.738 310.316 67.062 310.316 66.178C310.316 65.6407 310.03 65.2073 309.458 64.878C308.904 64.5487 308.046 64.1847 306.884 63.786C305.81 63.422 304.926 63.0753 304.232 62.746C303.539 62.4167 302.95 61.9747 302.464 61.42C301.979 60.848 301.736 60.146 301.736 59.314C301.736 58.3607 302.066 57.5113 302.724 56.766C303.383 56.0207 304.293 55.44 305.454 55.024C306.633 54.608 307.985 54.4 309.51 54.4C310.897 54.4 312.032 54.608 312.916 55.024C313.818 55.44 314.268 55.9687 314.268 56.61C314.268 57.234 314.06 57.7193 313.644 58.066C313.228 58.3953 312.682 58.56 312.006 58.56C311.348 58.56 310.784 58.352 310.316 57.936C309.848 57.52 309.493 56.9133 309.25 56.116C307.829 56.272 306.711 56.61 305.896 57.13C305.099 57.6327 304.7 58.248 304.7 58.976C304.7 59.34 304.839 59.652 305.116 59.912C305.411 60.172 305.775 60.3973 306.208 60.588C306.642 60.7613 307.257 60.9867 308.054 61.264C309.164 61.6453 310.056 62.0007 310.732 62.33C311.426 62.6593 312.015 63.11 312.5 63.682C313.003 64.2367 313.254 64.9387 313.254 65.788C313.254 66.7067 312.977 67.5387 312.422 68.284C311.868 69.012 311.062 69.584 310.004 70C308.964 70.4333 307.742 70.65 306.338 70.65ZM320.929 70.65C320.391 70.65 319.967 70.494 319.655 70.182C319.343 69.87 319.187 69.2893 319.187 68.44C319.187 67.5907 319.299 66.62 319.525 65.528C319.75 64.436 320.079 63.032 320.513 61.316C320.911 59.756 321.206 58.5167 321.397 57.598C321.587 56.662 321.683 55.856 321.683 55.18C321.683 54.556 321.596 53.854 321.423 53.074L321.371 52.866C321.665 52.554 322.055 52.3113 322.541 52.138C323.026 51.9473 323.503 51.852 323.971 51.852C324.473 51.852 324.837 51.9647 325.063 52.19C325.288 52.4153 325.401 52.788 325.401 53.308C325.401 53.724 325.314 54.2613 325.141 54.92C324.985 55.5787 324.725 56.506 324.361 57.702C323.702 59.886 323.182 61.7927 322.801 63.422C322.437 65.034 322.263 66.6633 322.281 68.31L323.113 69.714C322.801 70.026 322.445 70.26 322.047 70.416C321.665 70.572 321.293 70.65 320.929 70.65ZM319.603 58.612C319.169 58.612 318.857 58.534 318.667 58.378C318.476 58.2047 318.381 57.9447 318.381 57.598C318.381 57.1473 318.519 56.7227 318.797 56.324C319.282 56.48 320.071 56.558 321.163 56.558C321.821 56.558 322.688 56.4627 323.763 56.272C324.213 56.2027 324.681 56.142 325.167 56.09C325.652 56.0207 326.094 55.986 326.493 55.986C326.943 55.986 327.255 56.0727 327.429 56.246C327.602 56.4193 327.689 56.6793 327.689 57.026C327.689 57.4767 327.55 57.884 327.273 58.248C327.013 58.1787 326.657 58.1267 326.207 58.092C325.773 58.04 325.366 58.014 324.985 58.014C324.621 58.014 324.205 58.0487 323.737 58.118C323.269 58.17 322.818 58.2307 322.385 58.3C321.137 58.508 320.209 58.612 319.603 58.612Z" fill="url(#paint0_linear)"/>
<defs>
<linearGradient id="paint0_linear" x1="194" y1="82" x2="328" y2="82" gradientUnits="userSpaceOnUse">
<stop stop-color="#A3BE8C"/>
<stop offset="1" stop-color="#BF616A"/>
</linearGradient>
</defs>
</svg>
