<svg width="194" height="109" viewBox="0 0 194 109" fill="none" xmlns="http://www.w3.org/2000/svg">
<path d="M93.5247 59.8364C93.7518 58.1333 93.8653 56.3734 93.8653 54.5C93.8653 52.6833 93.7518 50.8667 93.468 49.1635L104.99 40.1937C106.011 39.399 106.295 37.8661 105.671 36.7307L94.7734 17.8828C94.0923 16.6339 92.6734 16.2365 91.4247 16.6339L77.8597 22.0839C75.0218 19.9266 72.0137 18.1099 68.665 16.7474L66.6218 2.3276C66.3947 0.965103 65.2596 0 63.8974 0H42.1026C40.7404 0 39.662 0.965103 39.435 2.3276L37.3917 16.7474C34.0431 18.1099 30.9782 19.9833 28.197 22.0839L14.632 16.6339C13.3834 16.1797 11.9644 16.6339 11.2834 17.8828L0.442709 36.7307C-0.238379 37.9229 -0.0113501 39.399 1.1238 40.1937L12.6455 49.1635C12.3617 50.8667 12.1347 52.7401 12.1347 54.5C12.1347 56.2599 12.2482 58.1333 12.532 59.8364L1.01028 68.8063C-0.0113501 69.601 -0.295136 71.1339 0.329195 72.2693L11.2266 91.1172C11.9077 92.3661 13.3266 92.7635 14.5753 92.3661L28.1403 86.9161C30.9782 89.0734 33.9863 90.8901 37.335 92.2526L39.3782 106.672C39.662 108.035 40.7404 109 42.1026 109H63.8974C65.2596 109 66.3947 108.035 66.565 106.672L68.6083 92.2526C71.957 90.8901 75.0219 89.0734 77.803 86.9161L91.368 92.3661C92.6166 92.8203 94.0356 92.3661 94.7167 91.1172L105.614 72.2693C106.295 71.0203 106.011 69.601 104.933 68.8063L93.5247 59.8364ZM53 74.9375C41.7621 74.9375 32.5674 65.7406 32.5674 54.5C32.5674 43.2594 41.7621 34.0625 53 34.0625C64.238 34.0625 73.4326 43.2594 73.4326 54.5C73.4326 65.7406 64.238 74.9375 53 74.9375Z" fill="#3B4252"/>
<path d="M53.272 65.8C50.8613 65.8 48.92 65.448 47.448 64.744C45.9973 64.0187 45.272 63.016 45.272 61.736C45.272 61.2667 45.3893 60.8293 45.624 60.424C45.88 59.9973 46.2213 59.656 46.648 59.4C47.3093 60.7013 48.2053 61.704 49.336 62.408C50.488 63.0907 51.736 63.432 53.08 63.432C54.9147 63.432 56.3867 63.112 57.496 62.472C58.6053 61.832 59.16 60.9147 59.16 59.72C59.16 59.1227 58.936 58.6 58.488 58.152C58.0613 57.704 57.5067 57.3307 56.824 57.032C56.1627 56.712 55.256 56.3387 54.104 55.912C52.5253 55.336 51.2453 54.792 50.264 54.28C49.304 53.768 48.472 53.0853 47.768 52.232C47.064 51.3573 46.712 50.28 46.712 49C46.712 47.6133 47.1813 46.376 48.12 45.288C49.08 44.1787 50.4133 43.3147 52.12 42.696C53.848 42.0773 55.832 41.768 58.072 41.768C59.3733 41.768 60.536 41.9067 61.56 42.184C62.6053 42.44 63.416 42.8027 63.992 43.272C64.5893 43.7413 64.888 44.2853 64.888 44.904C64.888 45.8 64.5893 46.4933 63.992 46.984C63.416 47.4533 62.648 47.688 61.688 47.688C60.7067 47.688 59.8853 47.4 59.224 46.824C58.5627 46.2267 58.0613 45.3627 57.72 44.232C55.5653 44.488 53.88 45.0107 52.664 45.8C51.448 46.568 50.84 47.4853 50.84 48.552C50.84 49.1067 51.0533 49.5973 51.48 50.024C51.9067 50.4293 52.44 50.7813 53.08 51.08C53.72 51.3573 54.6267 51.72 55.8 52.168C57.3573 52.7227 58.6373 53.256 59.64 53.768C60.6427 54.28 61.496 54.9627 62.2 55.816C62.9253 56.6693 63.288 57.7253 63.288 58.984C63.288 60.2213 62.8933 61.3627 62.104 62.408C61.336 63.432 60.1947 64.2533 58.68 64.872C57.1867 65.4907 55.384 65.8 53.272 65.8ZM75.6343 65.8C73.3729 65.8 71.6023 65.1067 70.3223 63.72C69.0423 62.3333 68.4023 60.424 68.4023 57.992C68.4023 55.688 68.9036 53.608 69.9062 51.752C70.9089 49.896 72.2956 48.4453 74.0663 47.4C75.8369 46.3333 77.8103 45.8 79.9863 45.8C81.6716 45.8 82.9836 46.2053 83.9223 47.016C84.8823 47.8267 85.3623 48.9467 85.3623 50.376C85.3623 51.8907 84.8183 53.192 83.7303 54.28C82.6423 55.3467 81.0529 56.168 78.9623 56.744C76.8929 57.2987 74.3863 57.576 71.4423 57.576L71.8263 55.784C75.0049 55.8053 77.4689 55.336 79.2183 54.376C80.9889 53.3947 81.8743 52.0293 81.8743 50.28C81.8743 49.5333 81.6503 48.936 81.2023 48.488C80.7543 48.04 80.1676 47.816 79.4423 47.816C78.1836 47.816 77.0103 48.2853 75.9223 49.224C74.8343 50.1413 73.9703 51.4 73.3303 53C72.6903 54.5787 72.3703 56.3067 72.3703 58.184C72.3703 59.8907 72.6903 61.2347 73.3303 62.216C73.9703 63.176 74.8449 63.656 75.9543 63.656C77.3409 63.656 78.4716 63.2187 79.3463 62.344C80.2209 61.4693 80.7009 60.3067 80.7863 58.856C81.6183 58.856 82.2583 59.016 82.7063 59.336C83.1543 59.6347 83.3783 60.1147 83.3783 60.776C83.3783 61.6293 83.0369 62.4507 82.3542 63.24C81.6716 64.008 80.7329 64.6267 79.5383 65.096C78.3649 65.5653 77.0636 65.8 75.6343 65.8ZM93.4388 65.8C92.7774 65.8 92.2548 65.608 91.8708 65.224C91.4868 64.84 91.2948 64.1253 91.2948 63.08C91.2948 62.0347 91.4334 60.84 91.7108 59.496C91.9881 58.152 92.3934 56.424 92.9268 54.312C93.4174 52.392 93.7801 50.8667 94.0148 49.736C94.2494 48.584 94.3668 47.592 94.3668 46.76C94.3668 45.992 94.2601 45.128 94.0468 44.168L93.9828 43.912C94.3454 43.528 94.8254 43.2293 95.4228 43.016C96.0201 42.7813 96.6068 42.664 97.1828 42.664C97.8014 42.664 98.2494 42.8027 98.5268 43.08C98.8041 43.3573 98.9428 43.816 98.9428 44.456C98.9428 44.968 98.8361 45.6293 98.6228 46.44C98.4308 47.2507 98.1108 48.392 97.6628 49.864C96.8521 52.552 96.2121 54.8987 95.7428 56.904C95.2948 58.888 95.0814 60.8933 95.1028 62.92L96.1267 64.648C95.7428 65.032 95.3054 65.32 94.8148 65.512C94.3454 65.704 93.8868 65.8 93.4388 65.8ZM91.8068 50.984C91.2734 50.984 90.8894 50.888 90.6548 50.696C90.4201 50.4827 90.3028 50.1627 90.3028 49.736C90.3028 49.1813 90.4734 48.6587 90.8148 48.168C91.4121 48.36 92.3828 48.456 93.7268 48.456C94.5374 48.456 95.6041 48.3387 96.9268 48.104C97.4814 48.0187 98.0574 47.944 98.6548 47.88C99.2521 47.7947 99.7961 47.752 100.287 47.752C100.841 47.752 101.225 47.8587 101.439 48.072C101.652 48.2853 101.759 48.6053 101.759 49.032C101.759 49.5867 101.588 50.088 101.247 50.536C100.927 50.4507 100.489 50.3867 99.9348 50.344C99.4014 50.28 98.9001 50.248 98.4308 50.248C97.9828 50.248 97.4708 50.2907 96.8948 50.376C96.3188 50.44 95.7641 50.5147 95.2308 50.6C93.6948 50.856 92.5534 50.984 91.8068 50.984ZM107.72 65.8C107.059 65.8 106.536 65.608 106.152 65.224C105.768 64.84 105.576 64.1253 105.576 63.08C105.576 62.0347 105.715 60.84 105.992 59.496C106.269 58.152 106.675 56.424 107.208 54.312C107.699 52.392 108.061 50.8667 108.296 49.736C108.531 48.584 108.648 47.592 108.648 46.76C108.648 45.992 108.541 45.128 108.328 44.168L108.264 43.912C108.627 43.528 109.107 43.2293 109.704 43.016C110.301 42.7813 110.888 42.664 111.464 42.664C112.083 42.664 112.531 42.8027 112.808 43.08C113.085 43.3573 113.224 43.816 113.224 44.456C113.224 44.968 113.117 45.6293 112.904 46.44C112.712 47.2507 112.392 48.392 111.944 49.864C111.133 52.552 110.493 54.8987 110.024 56.904C109.576 58.888 109.363 60.8933 109.384 62.92L110.408 64.648C110.024 65.032 109.587 65.32 109.096 65.512C108.627 65.704 108.168 65.8 107.72 65.8ZM106.088 50.984C105.555 50.984 105.171 50.888 104.936 50.696C104.701 50.4827 104.584 50.1627 104.584 49.736C104.584 49.1813 104.755 48.6587 105.096 48.168C105.693 48.36 106.664 48.456 108.008 48.456C108.819 48.456 109.885 48.3387 111.208 48.104C111.763 48.0187 112.339 47.944 112.936 47.88C113.533 47.7947 114.077 47.752 114.568 47.752C115.123 47.752 115.507 47.8587 115.72 48.072C115.933 48.2853 116.04 48.6053 116.04 49.032C116.04 49.5867 115.869 50.088 115.528 50.536C115.208 50.4507 114.771 50.3867 114.216 50.344C113.683 50.28 113.181 50.248 112.712 50.248C112.264 50.248 111.752 50.2907 111.176 50.376C110.6 50.44 110.045 50.5147 109.512 50.6C107.976 50.856 106.835 50.984 106.088 50.984ZM120.753 65.8C120.028 65.8 119.484 65.6187 119.121 65.256C118.759 64.8933 118.577 64.3173 118.577 63.528C118.577 62.6533 118.78 61.096 119.185 58.856C119.612 56.616 120.327 53.2453 121.329 48.744L119.921 47.144C120.433 46.7387 121.02 46.4187 121.681 46.184C122.364 45.928 122.983 45.8 123.537 45.8C124.177 45.8 124.625 45.9387 124.881 46.216C125.159 46.472 125.297 46.92 125.297 47.56C125.297 47.6667 125.233 47.9867 125.105 48.52C124.999 49.0533 124.86 49.6507 124.689 50.312C124.028 53.0213 123.473 55.4747 123.025 57.672C122.599 59.8693 122.385 61.7253 122.385 63.24C122.385 64.0507 122.577 64.616 122.961 64.936C122.257 65.512 121.521 65.8 120.753 65.8ZM123.601 43.08C122.919 43.08 122.375 42.92 121.969 42.6C121.564 42.2587 121.361 41.8107 121.361 41.256C121.361 40.8293 121.479 40.4347 121.713 40.072C121.969 39.7093 122.311 39.4213 122.737 39.208C123.164 38.9733 123.655 38.856 124.209 38.856C124.913 38.856 125.457 39.0267 125.841 39.368C126.247 39.688 126.449 40.1147 126.449 40.648C126.449 41.3307 126.183 41.9067 125.649 42.376C125.116 42.8453 124.433 43.08 123.601 43.08ZM133.192 65.8C132.445 65.8 131.89 65.6187 131.528 65.256C131.186 64.8933 131.016 64.3173 131.016 63.528C131.016 62.5893 131.293 60.6587 131.848 57.736C132.424 54.792 133.074 51.88 133.8 49L132.36 47.4C132.872 46.952 133.469 46.5893 134.152 46.312C134.856 46.0347 135.485 45.896 136.04 45.896C136.68 45.896 137.128 46.024 137.384 46.28C137.64 46.536 137.768 46.9947 137.768 47.656C137.768 48.2107 137.672 48.84 137.48 49.544C137.309 50.248 137.074 50.8987 136.776 51.496L137.095 51.656C139.25 47.752 142.045 45.8 145.48 45.8C146.866 45.8 147.89 46.152 148.552 46.856C149.234 47.5387 149.576 48.6053 149.576 50.056C149.576 50.9093 149.48 51.7947 149.288 52.712C149.117 53.6293 148.861 54.7813 148.52 56.168C148.114 57.7893 147.816 59.1227 147.624 60.168C147.432 61.192 147.336 62.216 147.336 63.24C147.336 64.008 147.474 64.5627 147.752 64.904C147.112 65.5013 146.429 65.8 145.704 65.8C144.978 65.8 144.434 65.6187 144.072 65.256C143.73 64.8933 143.56 64.3173 143.56 63.528C143.56 62.7173 143.645 61.8107 143.816 60.808C144.008 59.784 144.274 58.4613 144.616 56.84C144.936 55.496 145.17 54.376 145.319 53.48C145.49 52.5627 145.576 51.7733 145.576 51.112C145.576 49.384 144.925 48.52 143.624 48.52C142.109 48.52 140.669 49.2453 139.304 50.696C137.96 52.1253 136.872 53.9813 136.04 56.264C135.229 58.5467 134.824 60.872 134.824 63.24C134.824 64.0293 134.952 64.584 135.208 64.904C134.568 65.5013 133.896 65.8 133.192 65.8ZM156.994 72.52C155.458 72.52 154.21 72.2533 153.25 71.72C152.311 71.208 151.841 70.5467 151.841 69.736C151.841 69.3093 151.98 68.8613 152.258 68.392C152.535 67.944 152.898 67.56 153.346 67.24C153.836 68.0933 154.434 68.7227 155.138 69.128C155.863 69.5547 156.738 69.768 157.762 69.768C159.383 69.768 161.036 69.0747 162.722 67.688C164.407 66.3227 165.804 63.9867 166.914 60.68C168.044 57.352 168.503 52.9787 168.29 47.56C168.78 47.1333 169.164 46.856 169.442 46.728C169.74 46.5787 170.039 46.504 170.338 46.504C170.786 46.504 171.116 46.6107 171.33 46.824C171.564 47.016 171.682 47.3147 171.682 47.72C171.682 52.3067 171.191 56.4667 170.21 60.2C169.228 63.912 167.639 66.888 165.442 69.128C163.266 71.3893 160.45 72.52 156.994 72.52ZM159.362 64.872C158.188 64.872 157.143 64.5733 156.226 63.976C155.33 63.3573 154.626 62.4933 154.114 61.384C153.623 60.2533 153.378 58.952 153.378 57.48C153.378 55.2827 153.858 53.2987 154.818 51.528C155.799 49.7573 157.196 48.36 159.01 47.336C160.844 46.312 162.988 45.8 165.442 45.8C166.551 45.8 167.554 45.8853 168.45 46.056C168.706 46.4613 168.833 46.9627 168.833 47.56C166.508 47.56 164.471 47.976 162.722 48.808C160.994 49.6187 159.66 50.76 158.722 52.232C157.783 53.704 157.314 55.3787 157.314 57.256C157.314 58.8133 157.623 60.0293 158.242 60.904C158.882 61.7573 159.767 62.184 160.898 62.184C161.922 62.184 162.999 61.7467 164.13 60.872C165.26 59.976 166.231 58.44 167.042 56.264C167.852 54.0667 168.258 51.1653 168.258 47.56L168.418 60.296H166.37C165.623 61.7253 164.61 62.8453 163.33 63.656C162.05 64.4667 160.727 64.872 159.362 64.872ZM181.982 65.8C179.87 65.8 178.206 65.512 176.99 64.936C175.774 64.36 175.166 63.56 175.166 62.536C175.166 62.1093 175.294 61.704 175.549 61.32C175.806 60.936 176.168 60.616 176.638 60.36C177.171 61.4267 177.886 62.248 178.782 62.824C179.678 63.3787 180.67 63.656 181.758 63.656C183.294 63.656 184.531 63.368 185.47 62.792C186.408 62.216 186.878 61.384 186.878 60.296C186.878 59.6347 186.526 59.1013 185.822 58.696C185.139 58.2907 184.083 57.8427 182.654 57.352C181.331 56.904 180.243 56.4773 179.39 56.072C178.536 55.6667 177.811 55.1227 177.214 54.44C176.616 53.736 176.318 52.872 176.318 51.848C176.318 50.6747 176.723 49.6293 177.534 48.712C178.344 47.7947 179.464 47.08 180.894 46.568C182.344 46.056 184.008 45.8 185.886 45.8C187.592 45.8 188.99 46.056 190.078 46.568C191.187 47.08 191.742 47.7307 191.742 48.52C191.742 49.288 191.486 49.8853 190.974 50.312C190.462 50.7173 189.79 50.92 188.958 50.92C188.147 50.92 187.454 50.664 186.878 50.152C186.302 49.64 185.864 48.8933 185.566 47.912C183.816 48.104 182.44 48.52 181.438 49.16C180.456 49.7787 179.966 50.536 179.966 51.432C179.966 51.88 180.136 52.264 180.478 52.584C180.84 52.904 181.288 53.1813 181.822 53.416C182.355 53.6293 183.112 53.9067 184.094 54.248C185.459 54.7173 186.558 55.1547 187.39 55.56C188.243 55.9653 188.968 56.52 189.566 57.224C190.184 57.9067 190.494 58.7707 190.494 59.816C190.494 60.9467 190.152 61.9707 189.47 62.888C188.787 63.784 187.795 64.488 186.494 65C185.214 65.5333 183.71 65.8 181.982 65.8Z" fill="url(#paint0_linear)"/>
<defs>
<linearGradient id="paint0_linear" x1="43" y1="75" x2="194" y2="75" gradientUnits="userSpaceOnUse">
<stop stop-color="#A3BE8C"/>
<stop offset="1" stop-color="#BF616A"/>
</linearGradient>
</defs>
</svg>
